<?xml version="1.0" encoding="UTF-8" standalone="no"?>
<!DOCTYPE svg PUBLIC "-//W3C//DTD SVG 1.1//EN" "http://www.w3.org/Graphics/SVG/1.1/DTD/svg11.dtd">
<svg xmlns="http://www.w3.org/2000/svg" version="1.1" viewBox="0.00 0.00 1189.00 339.00">
<g stroke-width="2.00" fill="none" stroke-linecap="butt">
<path stroke="#1ea133" vector-effect="non-scaling-stroke" d="
  M 955.77 212.58
  Q 948.28 229.97 936.79 244.63
  C 921.76 263.80 896.71 275.44 873.37 280.32
  C 871.25 280.76 867.67 281.18 864.82 282.00
  Q 864.46 282.10 864.78 282.30
  Q 865.15 282.52 865.06 282.88"
/>
<path stroke="#40a71e" vector-effect="non-scaling-stroke" d="
  M 865.06 282.88
  L 861.53 282.30"
/>
<path stroke="#5db516" vector-effect="non-scaling-stroke" d="
  M 954.52 266.22
  Q 912.79 289.35 865.06 282.88"
/>
</g>
<path fill="#3bae2b" d="
  M 194.95 219.05
  C 181.25 214.66 166.69 209.84 154.25 202.57
  C 131.11 189.04 120.69 167.14 121.44 140.42
  C 122.71 95.06 158.49 71.83 200.26 68.38
  C 226.24 66.23 251.99 69.93 275.26 81.51
  C 282.78 85.26 290.87 92.27 292.58 100.58
  C 295.42 114.40 283.36 130.41 275.94 140.18
  Q 275.60 140.63 275.13 140.31
  C 256.92 127.86 225.51 116.20 204.89 124.81
  Q 200.23 126.76 198.21 131.24
  C 191.78 145.51 210.45 152.18 220.13 155.49
  C 247.45 164.86 277.98 173.72 290.59 202.80
  C 297.79 219.41 297.11 242.41 292.39 259.29
  C 281.59 297.98 246.84 314.99 209.09 316.32
  C 185.52 317.16 163.42 314.94 141.77 305.90
  C 128.84 300.49 117.95 292.22 119.37 276.92
  C 120.45 265.29 130.55 250.92 138.54 241.26
  Q 138.89 240.84 139.35 241.15
  C 158.99 254.34 179.49 264.12 203.00 262.67
  C 207.42 262.39 212.44 261.11 215.98 258.44
  Q 223.67 252.63 222.68 242.45
  C 221.39 229.23 206.11 222.62 194.95 219.05
  Z"
/>
<path fill="#3bae2b" d="
  M 452.75 161.75
  L 452.75 73.76
  Q 452.75 73.30 453.21 73.24
  Q 468.96 71.16 474.99 70.75
  C 484.23 70.11 496.16 71.18 504.49 74.59
  Q 524.20 82.67 524.23 106.50
  Q 524.31 164.17 524.23 309.75
  Q 524.23 310.25 523.73 310.25
  L 453.25 310.25
  Q 452.75 310.25 452.75 309.75
  L 452.75 218.25
  Q 452.75 217.75 452.25 217.75
  L 395.75 217.75
  Q 395.25 217.75 395.25 218.25
  L 395.25 309.75
  Q 395.25 310.25 394.75 310.25
  L 324.50 310.25
  Q 324.00 310.25 324.00 309.75
  L 324.00 73.56
  Q 324.00 73.19 324.36 73.15
  C 336.56 71.82 348.64 69.55 361.32 71.16
  C 376.79 73.14 389.38 78.78 393.87 94.72
  Q 395.28 99.74 395.26 110.38
  Q 395.21 136.08 395.27 161.75
  Q 395.27 162.25 395.76 162.25
  L 452.25 162.25
  Q 452.75 162.25 452.75 161.75
  Z"
/>
<path fill="#3bae2b" d="
  M 621.64 78.41
  Q 634.22 87.21 634.23 104.51
  Q 634.29 207.09 634.24 309.74
  Q 634.23 310.25 633.73 310.25
  L 563.25 310.25
  Q 562.75 310.25 562.75 309.75
  L 562.75 73.56
  Q 562.75 73.21 563.10 73.17
  C 581.65 71.09 605.01 66.78 621.64 78.41
  Z"
/>
<path fill="#3bae2b" d="
  M 771.11 234.76
  Q 786.61 172.22 802.00 109.10
  Q 805.06 96.56 807.85 91.35
  C 816.93 74.42 832.38 70.05 850.96 70.80
  Q 868.44 71.50 885.36 76.32
  Q 885.89 76.47 885.71 76.99
  L 808.49 311.48
  Q 808.31 312.00 807.76 312.00
  L 729.74 312.00
  Q 729.21 312.00 729.05 311.49
  L 653.58 76.64
  A 0.96 0.96 0.0 0 1 654.28 75.42
  Q 677.87 70.17 699.74 70.77
  C 713.80 71.15 726.84 77.58 733.33 89.35
  Q 736.09 94.35 739.26 108.10
  Q 753.93 171.68 768.51 234.74
  A 1.34 1.34 0.0 0 0 771.11 234.76
  Z"
/>
<path fill="#3bae2b" d="
  M 1023.35 309.27
  L 933.79 79.22
  Q 933.26 77.87 934.64 77.42
  Q 958.23 69.59 982.32 70.83
  C 998.81 71.68 1011.69 77.03 1020.24 90.99
  Q 1023.10 95.66 1027.73 109.48
  Q 1061.29 209.56 1094.60 309.74
  Q 1094.77 310.25 1094.23 310.25
  L 1024.78 310.25
  Q 1023.73 310.25 1023.35 309.27
  Z"
/>
<path fill="#00933b" d="
  M 955.77 212.58
  Q 948.28 229.97 936.79 244.63
  C 921.76 263.80 896.71 275.44 873.37 280.32
  C 871.25 280.76 867.67 281.18 864.82 282.00
  Q 864.46 282.10 864.78 282.30
  Q 865.15 282.52 865.06 282.88
  L 861.53 282.30
  C 852.03 254.19 868.65 224.48 898.50 220.51
  C 916.53 218.12 934.04 217.00 952.25 211.54
  Q 954.16 210.97 955.77 212.58
  Z"
/>
<path fill="#3bae2b" d="
  M 955.77 212.58
  Q 956.95 213.46 957.10 214.46
  Q 961.21 240.88 954.52 266.22
  Q 912.79 289.35 865.06 282.88
  Q 865.15 282.52 864.78 282.30
  Q 864.46 282.10 864.82 282.00
  C 867.67 281.18 871.25 280.76 873.37 280.32
  C 896.71 275.44 921.76 263.80 936.79 244.63
  Q 948.28 229.97 955.77 212.58
  Z"
/>
<path fill="#7fbb00" d="
  M 954.52 266.22
  Q 952.44 276.65 948.65 284.93
  C 930.85 323.77 877.30 321.97 861.53 282.30
  L 865.06 282.88
  Q 912.79 289.35 954.52 266.22
  Z"
/>
</svg>
