<?xml version="1.0" encoding="UTF-8" standalone="no"?>
<!DOCTYPE svg PUBLIC "-//W3C//DTD SVG 1.1//EN" "http://www.w3.org/Graphics/SVG/1.1/DTD/svg11.dtd">
<svg xmlns="http://www.w3.org/2000/svg" version="1.1" viewBox="0.00 0.00 511.00 511.00">
<g stroke-width="2.00" fill="none" stroke-linecap="butt">
<path stroke="#9dd795" vector-effect="non-scaling-stroke" d="
  M 117.85 116.67
  C 112.38 112.81 111.80 103.61 118.10 100.26
  C 133.81 91.91 159.76 102.15 173.26 111.38
  Q 173.61 111.63 173.88 111.29
  C 180.26 103.06 189.13 90.87 186.52 80.00
  C 184.10 69.86 169.53 64.01 160.02 60.91
  C 122.10 48.53 60.75 56.47 55.87 106.75
  C 54.20 123.93 58.83 141.18 71.33 152.19
  C 83.64 163.03 100.50 167.71 116.07 173.28
  C 124.72 176.37 134.22 181.93 132.98 192.75
  C 132.01 201.15 125.19 204.73 117.50 205.05
  C 99.23 205.83 83.74 198.14 69.38 188.63
  Q 68.99 188.37 68.68 188.73
  C 57.11 202.27 43.42 224.22 66.98 236.07
  Q 79.72 242.48 94.99 244.73
  C 133.76 250.43 179.58 242.15 187.90 196.35
  Q 189.81 185.82 189.01 175.49
  C 187.33 153.78 173.43 138.74 153.50 131.02
  Q 143.03 126.97 129.05 122.05
  Q 121.95 119.56 117.85 116.67"
/>
<path stroke="#9dd795" vector-effect="non-scaling-stroke" d="
  M 309.27 171.25
  L 309.27 241.00
  Q 309.27 241.48 309.75 241.48
  L 363.47 241.48
  Q 363.97 241.48 363.97 240.98
  Q 364.05 165.31 363.97 89.65
  Q 363.95 79.92 362.86 76.14
  C 359.85 65.72 351.79 60.99 341.15 58.87
  C 330.62 56.78 320.16 58.73 309.81 59.89
  Q 309.27 59.95 309.27 60.49
  L 309.27 127.75
  Q 309.27 128.27 308.75 128.27
  L 265.77 128.27
  Q 265.28 128.27 265.28 127.78
  Q 265.15 109.84 265.28 91.87
  Q 265.37 80.35 263.94 75.72
  Q 259.55 61.41 242.44 58.82
  C 230.74 57.04 221.63 58.82 210.89 59.89
  Q 210.52 59.93 210.52 60.30
  L 210.52 241.00
  A 0.48 0.48 0.0 0 0 211.00 241.48
  L 264.75 241.48
  Q 265.24 241.48 265.24 241.00
  L 265.24 171.24
  Q 265.24 170.73 265.76 170.73
  L 308.75 170.73
  Q 309.27 170.73 309.27 171.25"
/>
<path stroke="#9dd795" vector-effect="non-scaling-stroke" d="
  M 439.72 64.83
  C 427.25 54.75 408.30 58.37 393.90 59.87
  Q 393.52 59.91 393.52 60.30
  L 393.52 240.88
  Q 393.52 241.48 394.13 241.48
  L 447.72 241.48
  Q 448.22 241.48 448.22 240.98
  Q 448.31 164.82 448.22 88.73
  C 448.20 78.52 447.25 70.92 439.72 64.83"
/>
<path stroke="#9dd795" vector-effect="non-scaling-stroke" d="
  M 195.75 390.79
  Q 184.93 343.97 174.10 297.16
  Q 171.02 283.85 169.70 281.07
  C 164.76 270.68 153.68 265.46 142.25 265.28
  Q 124.78 265.00 108.15 269.02
  Q 107.52 269.17 107.72 269.78
  L 165.49 449.59
  Q 165.62 450.01 166.07 450.01
  L 225.50 449.99
  A 1.06 1.06 0.0 0 0 226.51 449.26
  L 285.54 270.05
  A 0.35 0.35 0.0 0 0 285.31 269.61
  Q 274.59 266.60 263.47 265.65
  C 248.02 264.34 234.64 266.23 226.61 279.83
  Q 223.87 284.48 220.76 297.18
  Q 209.24 344.15 197.72 391.04
  A 0.87 0.85 -81.5 0 1 196.84 391.70
  Q 196.45 391.68 196.12 391.42
  Q 195.85 391.22 195.75 390.79"
/>
<path stroke="#9dd795" vector-effect="non-scaling-stroke" d="
  M 445.48 448.37
  Q 420.30 372.78 395.10 297.54
  Q 390.46 283.71 387.35 279.19
  C 378.48 266.35 364.90 264.63 349.48 265.36
  Q 335.61 266.01 322.42 270.69
  A 0.55 0.54 69.3 0 0 322.10 271.41
  L 390.93 448.21
  Q 391.13 448.73 391.69 448.73
  L 445.22 448.73
  Q 445.59 448.73 445.48 448.37"
/>
<path stroke="#bfdd80" vector-effect="non-scaling-stroke" d="
  M 266.95 427.34
  C 275.95 451.13 305.71 458.85 324.74 441.75
  C 332.38 434.89 336.20 425.00 338.27 414.86"
/>
<path stroke="#9dd795" vector-effect="non-scaling-stroke" d="
  M 338.27 414.86
  Q 342.14 395.17 340.11 374.72"
/>
<path stroke="#80c99d" vector-effect="non-scaling-stroke" d="
  M 340.11 374.72
  C 338.78 373.55 338.06 372.80 336.17 373.29
  Q 320.26 377.40 303.91 378.85
  C 298.01 379.37 290.71 380.26 286.54 382.03
  C 268.82 389.57 260.70 409.27 266.95 427.34"
/>
<path stroke="#1ea133" vector-effect="non-scaling-stroke" d="
  M 340.11 374.72
  Q 338.97 374.71 338.48 375.74
  C 331.56 390.34 323.25 403.26 309.59 412.07
  Q 293.18 422.65 273.99 426.10
  Q 271.45 426.56 271.34 427.81"
/>
<path stroke="#40a71e" vector-effect="non-scaling-stroke" d="
  M 271.34 427.81
  L 266.95 427.34"
/>
<path stroke="#5db516" vector-effect="non-scaling-stroke" d="
  M 338.27 414.86
  Q 307.12 432.36 271.34 427.81"
/>
</g>
<path fill="#ffffff" d="
  M 63.63 0.00
  L 446.00 0.00
  C 482.34 1.72 509.71 29.29 511.00 65.65
  L 511.00 445.48
  C 509.50 480.90 483.67 507.74 448.39 511.00
  L 61.49 511.00
  Q 21.52 506.51 5.09 470.92
  Q 0.58 461.15 0.00 448.62
  L 0.00 60.50
  Q 1.14 47.24 6.58 36.81
  Q 24.27 2.85 63.63 0.00
  Z
  M 117.85 116.67
  C 112.38 112.81 111.80 103.61 118.10 100.26
  C 133.81 91.91 159.76 102.15 173.26 111.38
  Q 173.61 111.63 173.88 111.29
  C 180.26 103.06 189.13 90.87 186.52 80.00
  C 184.10 69.86 169.53 64.01 160.02 60.91
  C 122.10 48.53 60.75 56.47 55.87 106.75
  C 54.20 123.93 58.83 141.18 71.33 152.19
  C 83.64 163.03 100.50 167.71 116.07 173.28
  C 124.72 176.37 134.22 181.93 132.98 192.75
  C 132.01 201.15 125.19 204.73 117.50 205.05
  C 99.23 205.83 83.74 198.14 69.38 188.63
  Q 68.99 188.37 68.68 188.73
  C 57.11 202.27 43.42 224.22 66.98 236.07
  Q 79.72 242.48 94.99 244.73
  C 133.76 250.43 179.58 242.15 187.90 196.35
  Q 189.81 185.82 189.01 175.49
  C 187.33 153.78 173.43 138.74 153.50 131.02
  Q 143.03 126.97 129.05 122.05
  Q 121.95 119.56 117.85 116.67
  Z
  M 309.27 171.25
  L 309.27 241.00
  Q 309.27 241.48 309.75 241.48
  L 363.47 241.48
  Q 363.97 241.48 363.97 240.98
  Q 364.05 165.31 363.97 89.65
  Q 363.95 79.92 362.86 76.14
  C 359.85 65.72 351.79 60.99 341.15 58.87
  C 330.62 56.78 320.16 58.73 309.81 59.89
  Q 309.27 59.95 309.27 60.49
  L 309.27 127.75
  Q 309.27 128.27 308.75 128.27
  L 265.77 128.27
  Q 265.28 128.27 265.28 127.78
  Q 265.15 109.84 265.28 91.87
  Q 265.37 80.35 263.94 75.72
  Q 259.55 61.41 242.44 58.82
  C 230.74 57.04 221.63 58.82 210.89 59.89
  Q 210.52 59.93 210.52 60.30
  L 210.52 241.00
  A 0.48 0.48 0.0 0 0 211.00 241.48
  L 264.75 241.48
  Q 265.24 241.48 265.24 241.00
  L 265.24 171.24
  Q 265.24 170.73 265.76 170.73
  L 308.75 170.73
  Q 309.27 170.73 309.27 171.25
  Z
  M 439.72 64.83
  C 427.25 54.75 408.30 58.37 393.90 59.87
  Q 393.52 59.91 393.52 60.30
  L 393.52 240.88
  Q 393.52 241.48 394.13 241.48
  L 447.72 241.48
  Q 448.22 241.48 448.22 240.98
  Q 448.31 164.82 448.22 88.73
  C 448.20 78.52 447.25 70.92 439.72 64.83
  Z
  M 195.75 390.79
  Q 184.93 343.97 174.10 297.16
  Q 171.02 283.85 169.70 281.07
  C 164.76 270.68 153.68 265.46 142.25 265.28
  Q 124.78 265.00 108.15 269.02
  Q 107.52 269.17 107.72 269.78
  L 165.49 449.59
  Q 165.62 450.01 166.07 450.01
  L 225.50 449.99
  A 1.06 1.06 0.0 0 0 226.51 449.26
  L 285.54 270.05
  A 0.35 0.35 0.0 0 0 285.31 269.61
  Q 274.59 266.60 263.47 265.65
  C 248.02 264.34 234.64 266.23 226.61 279.83
  Q 223.87 284.48 220.76 297.18
  Q 209.24 344.15 197.72 391.04
  A 0.87 0.85 -81.5 0 1 196.84 391.70
  Q 196.45 391.68 196.12 391.42
  Q 195.85 391.22 195.75 390.79
  Z
  M 445.48 448.37
  Q 420.30 372.78 395.10 297.54
  Q 390.46 283.71 387.35 279.19
  C 378.48 266.35 364.90 264.63 349.48 265.36
  Q 335.61 266.01 322.42 270.69
  A 0.55 0.54 69.3 0 0 322.10 271.41
  L 390.93 448.21
  Q 391.13 448.73 391.69 448.73
  L 445.22 448.73
  Q 445.59 448.73 445.48 448.37
  Z
  M 266.95 427.34
  C 275.95 451.13 305.71 458.85 324.74 441.75
  C 332.38 434.89 336.20 425.00 338.27 414.86
  Q 342.14 395.17 340.11 374.72
  C 338.78 373.55 338.06 372.80 336.17 373.29
  Q 320.26 377.40 303.91 378.85
  C 298.01 379.37 290.71 380.26 286.54 382.03
  C 268.82 389.57 260.70 409.27 266.95 427.34
  Z"
/>
<path fill="#3bae2b" d="
  M 118.10 100.26
  C 111.80 103.61 112.38 112.81 117.85 116.67
  Q 121.95 119.56 129.05 122.05
  Q 143.03 126.97 153.50 131.02
  C 173.43 138.74 187.33 153.78 189.01 175.49
  Q 189.81 185.82 187.90 196.35
  C 179.58 242.15 133.76 250.43 94.99 244.73
  Q 79.72 242.48 66.98 236.07
  C 43.42 224.22 57.11 202.27 68.68 188.73
  Q 68.99 188.37 69.38 188.63
  C 83.74 198.14 99.23 205.83 117.50 205.05
  C 125.19 204.73 132.01 201.15 132.98 192.75
  C 134.22 181.93 124.72 176.37 116.07 173.28
  C 100.50 167.71 83.64 163.03 71.33 152.19
  C 58.83 141.18 54.20 123.93 55.87 106.75
  C 60.75 56.47 122.10 48.53 160.02 60.91
  C 169.53 64.01 184.10 69.86 186.52 80.00
  C 189.13 90.87 180.26 103.06 173.88 111.29
  Q 173.61 111.63 173.26 111.38
  C 159.76 102.15 133.81 91.91 118.10 100.26
  Z"
/>
<path fill="#3bae2b" d="
  M 308.75 170.73
  L 265.76 170.73
  Q 265.24 170.73 265.24 171.24
  L 265.24 241.00
  Q 265.24 241.48 264.75 241.48
  L 211.00 241.48
  A 0.48 0.48 0.0 0 1 210.52 241.00
  L 210.52 60.30
  Q 210.52 59.93 210.89 59.89
  C 221.63 58.82 230.74 57.04 242.44 58.82
  Q 259.55 61.41 263.94 75.72
  Q 265.37 80.35 265.28 91.87
  Q 265.15 109.84 265.28 127.78
  Q 265.28 128.27 265.77 128.27
  L 308.75 128.27
  Q 309.27 128.27 309.27 127.75
  L 309.27 60.49
  Q 309.27 59.95 309.81 59.89
  C 320.16 58.73 330.62 56.78 341.15 58.87
  C 351.79 60.99 359.85 65.72 362.86 76.14
  Q 363.95 79.92 363.97 89.65
  Q 364.05 165.31 363.97 240.98
  Q 363.97 241.48 363.47 241.48
  L 309.75 241.48
  Q 309.27 241.48 309.27 241.00
  L 309.27 171.25
  Q 309.27 170.73 308.75 170.73
  Z"
/>
<path fill="#3bae2b" d="
  M 439.72 64.83
  C 447.25 70.92 448.20 78.52 448.22 88.73
  Q 448.31 164.82 448.22 240.98
  Q 448.22 241.48 447.72 241.48
  L 394.13 241.48
  Q 393.52 241.48 393.52 240.88
  L 393.52 60.30
  Q 393.52 59.91 393.90 59.87
  C 408.30 58.37 427.25 54.75 439.72 64.83
  Z"
/>
<path fill="#3bae2b" d="
  M 196.12 391.42
  Q 196.45 391.68 196.84 391.70
  A 0.87 0.85 -81.5 0 0 197.72 391.04
  Q 209.24 344.15 220.76 297.18
  Q 223.87 284.48 226.61 279.83
  C 234.64 266.23 248.02 264.34 263.47 265.65
  Q 274.59 266.60 285.31 269.61
  A 0.35 0.35 0.0 0 1 285.54 270.05
  L 226.51 449.26
  A 1.06 1.06 0.0 0 1 225.50 449.99
  L 166.07 450.01
  Q 165.62 450.01 165.49 449.59
  L 107.72 269.78
  Q 107.52 269.17 108.15 269.02
  Q 124.78 265.00 142.25 265.28
  C 153.68 265.46 164.76 270.68 169.70 281.07
  Q 171.02 283.85 174.10 297.16
  Q 184.93 343.97 195.75 390.79
  Q 195.85 391.22 196.12 391.42
  Z"
/>
<path fill="#3bae2b" d="
  M 445.48 448.37
  Q 445.59 448.73 445.22 448.73
  L 391.69 448.73
  Q 391.13 448.73 390.93 448.21
  L 322.10 271.41
  A 0.55 0.54 69.3 0 1 322.42 270.69
  Q 335.61 266.01 349.48 265.36
  C 364.90 264.63 378.48 266.35 387.35 279.19
  Q 390.46 283.71 395.10 297.54
  Q 420.30 372.78 445.48 448.37
  Z"
/>
<path fill="#00933b" d="
  M 340.11 374.72
  Q 338.97 374.71 338.48 375.74
  C 331.56 390.34 323.25 403.26 309.59 412.07
  Q 293.18 422.65 273.99 426.10
  Q 271.45 426.56 271.34 427.81
  L 266.95 427.34
  C 260.70 409.27 268.82 389.57 286.54 382.03
  C 290.71 380.26 298.01 379.37 303.91 378.85
  Q 320.26 377.40 336.17 373.29
  C 338.06 372.80 338.78 373.55 340.11 374.72
  Z"
/>
<path fill="#3bae2b" d="
  M 340.11 374.72
  Q 342.14 395.17 338.27 414.86
  Q 307.12 432.36 271.34 427.81
  Q 271.45 426.56 273.99 426.10
  Q 293.18 422.65 309.59 412.07
  C 323.25 403.26 331.56 390.34 338.48 375.74
  Q 338.97 374.71 340.11 374.72
  Z"
/>
<path fill="#7fbb00" d="
  M 338.27 414.86
  C 336.20 425.00 332.38 434.89 324.74 441.75
  C 305.71 458.85 275.95 451.13 266.95 427.34
  L 271.34 427.81
  Q 307.12 432.36 338.27 414.86
  Z"
/>
</svg>
